<?xml version="1.0" encoding="utf-8"?>
<!-- Generator: Adobe Illustrator 15.0.2, SVG Export Plug-In . SVG Version: 6.00 Build 0)  -->
<!DOCTYPE svg PUBLIC "-//W3C//DTD SVG 1.1//EN" "http://www.w3.org/Graphics/SVG/1.1/DTD/svg11.dtd">
<svg version="1.1" id="Layer_1" xmlns="http://www.w3.org/2000/svg" xmlns:xlink="http://www.w3.org/1999/xlink" x="0px" y="0px"
	 width="1040.217px" height="95.563px" viewBox="0 0 1040.217 95.563" enable-background="new 0 0 1040.217 95.563"
	 xml:space="preserve">
<g opacity="0.8">
	<path fill="#FFDF99" d="M4.457,85.674c3.209,1.935,8.75,2.127,13.996,2.454C14.416,86.276,10.125,85.468,4.457,85.674z"/>
	<path fill="#FFDF99" d="M18.555,88.17c0.019-0.01,0.059-0.018,0.081-0.025l-0.183-0.017C18.493,88.149,18.524,88.153,18.555,88.17z
		"/>
	<path fill="#FFDF99" d="M1036.333,2.75l-4.317,0.117C1033.462,2.927,1034.933,2.932,1036.333,2.75z"/>
	<path fill="#FFDF99" d="M272.613,93.963l0.802-3.198c12.443-0.031,3.62,3.664,15.125,2.886c4.504-4.52,19.11,0.487,23.089-1.911
		c-0.09,0.359,5.543,0.501,5.186,1.915c1.727-2.454,5.795-0.565,9.348-1.188c1.289-0.681-0.944-0.735-1.907-1.477l8.14-0.859
		c3.183,0.792,3.965,2.238,0.505,2.503c21.269,0.901,123.387,3.351,146.302,2.146c-2.943-1.856-10.018-0.609-12.703-3.528
		c6.059-1.631,8.918,0.579,11.589-1.139c2.322,4.342,13.313,1.054,17.895,5.45l1.74-2.453l3.009,1.507
		c26.646-2.533,6.09-1.244,29.706-0.642c13.67-0.365,20.168-3.768,27.772-2.504c-1.13-0.026-4.143-1.533-0.602-2.159
		c0.602,2.159,9.428-1.538,11.151,0.64c3.469-0.266,14.704,0.022,10.903-2.931c1.906,1.475,11.931,2.086,5.962,3.359
		c3.382,0.089,6.657,0.527,9.093-0.122l-4.342-0.827c11.422-0.416,17.645,1.873,25.086-0.788l-4.22-1.178
		c6.829-0.183,12.54-0.395,15.219,2.524l-7.012,0.892c11.325-0.065,18.154-0.25,27.595-1.794l-3.369-0.083
		c12.028-2.902,74.938-5.252,86.021-8.892l-5.102-2.271l9.531-1.899c-1.127-0.028-4.605,7.354-5.55,6.612
		c20.418-0.191,126.628-1.845,145.483-0.302c7.608,1.264,1.366,3.6,1.278,3.958c9.261-0.84,3.998-2.398,11.87-2.197
		c2.148,0.41-0.448,1.775-1.656,2.099c3.45-0.269,6.648,0.521,6.913-0.535c-4.313-0.826-2.483-3.635-4.309-5.461l10.126,0.254
		l-0.45,1.773c2.258,0.057,5.73-4.847,15.677-3.884c16.781,0.784,35.011,0.181,51.886,0.604c-0.265,1.066-3.808,1.692-7.36,2.312
		c2.264,0.057,5.71-0.211,7.794,0.557c-4.074-1.887,7.084-1.245,3.897-2.041c12.364-4.326,28.353-0.351,39.266-3.281
		c0.958-3.901,23.428-66.981,23.433-71.618c3.388,0.085,6.757,0.174,7.791,0.556c-0.872-1.095-7.53-1.619-11.07-0.997l-0.612,2.484
		c-8.143,0.865-1.906-1.479-9.854-1.318c-0.422-2.036,6.894-2.462,13.335-2.651c-5.8-0.244-11.574-1.73-13.939,0.494
		c-5.45-0.851,0.609-2.483-5.955-3.361c-4.677,0.595-10.82,2.579-16.192,1.371l0.097-0.359c-13.058-2.112-19.984,3.067-31.915,0.977
		l1.286-0.679c-4.217-1.18-12.521,0.393-20.129-0.869c2.17,0.412,4.055,1.885-0.52,2.121c-8.747-1.288-14.717-0.014-21.11-1.601
		l-6.14,1.984C887.041,2.524,766.73,5.24,736.132,5.529l1.198-0.317c-46.618,0.953-142.315,0.707-190.5,3.4
		c-7.449-1.962-17.729-1.511-25.501-2.069c4.322,0.822,2.841,2.211-0.535,2.128c-23.688-0.25-1.6,1.354-25.558,2.168
		c-27.585,1.794-133.151-0.38-157.637-2.076c-13.155,2.878-29.573,0.677-42.461,2.491l1.298-0.679
		c-13.841,1.073-92.181-1.679-108.267-0.663l2.161,0.416c-14.027,1.781-12.114-1.379-23.166-2.374
		c1.449,3.244-10.572,5.072-15.155,5.312l0.174-0.708c-6.913,0.54-22.574,3.341-33.989,3.764l0.448-1.773
		c-9.522,1.897-27.421,1.088-34.262,1.268c-15.648-0.75-39.776-3.861-60.701-1.537L10.167,9.211L8.188,9.713
		c0,0-21.827,61.032,5.794,74.062l-0.441,1.77l5.463-0.224c6.555,0.878,9.589-1.173,9.142,0.595l-8.981-0.228
		c6.587,0.521,1.987,1.457-0.529,2.457c2.75,0.174,5.419,0.388,7.608,0.935c1.298-0.681-0.953-0.737-1.978-1.121
		c3.543-0.621,8.479-2.28,12.792-1.46c6.745,0.175,0.428,2.867,8.297,3.064c41.503,1.413,81.718,3.503,123.669,3.145
		c0.953,0.735-0.184,0.707-1.395,1.036c12.639-0.752,23.871-0.464,35.38-1.246c3.195,0.797,4.067,1.885,5.011,2.622
		C206.123,93.65,271.576,93.578,272.613,93.963z"/>
</g>
</svg>
