<?xml version="1.0" encoding="utf-8"?>
<!-- Generator: Adobe Illustrator 15.0.2, SVG Export Plug-In . SVG Version: 6.00 Build 0)  -->
<!DOCTYPE svg PUBLIC "-//W3C//DTD SVG 1.1//EN" "http://www.w3.org/Graphics/SVG/1.1/DTD/svg11.dtd">
<svg version="1.1" id="Layer_1" xmlns="http://www.w3.org/2000/svg" xmlns:xlink="http://www.w3.org/1999/xlink" x="0px" y="0px"
	 width="949.76px" height="60.225px" viewBox="0 0 949.76 60.225" enable-background="new 0 0 949.76 60.225" xml:space="preserve">
<g opacity="0.6">
	<path fill="#C2DFF5" d="M945.959,12.514c-2.913-1.25-7.968-1.442-12.753-1.714C936.875,12.009,940.785,12.569,945.959,12.514z"/>
	<polygon fill="#C2DFF5" points="933.113,10.772 933.04,10.787 933.206,10.799 	"/>
	<path fill="#C2DFF5" d="M3.523,51.041l3.941-0.017C6.145,50.967,4.802,50.945,3.523,51.041z"/>
	<path fill="#C2DFF5" d="M701.295,3.878l-0.759,1.989c-11.356-0.141-3.272-2.336-13.78-1.999
		c-4.148,2.766-17.437-0.551-21.088,0.897c0.085-0.223-5.055-0.385-4.717-1.264c-1.597,1.511-5.293,0.278-8.541,0.622
		c-1.182,0.409,0.855,0.472,1.728,0.947l-7.436,0.432c-2.898-0.536-3.601-1.45-0.44-1.57c-19.403-0.837-112.581-3.684-133.505-3.227
		c2.671,1.198,9.138,0.51,11.564,2.368c-5.544,0.941-8.135-0.477-10.587,0.563c-2.083-2.744-12.142-0.83-16.286-3.637l-1.608,1.511
		l-2.733-0.98c-24.339,1.24-5.568,0.699-27.117,0.018c-12.479,0.052-18.438,2.095-25.367,1.208c1.031,0.031,3.768,1.011,0.531,1.357
		c-0.531-1.357-8.618,0.839-10.172-0.543c-3.168,0.122-13.419-0.204-9.976,1.691c-1.728-0.946-10.871-1.457-5.413-2.176
		c-3.085-0.099-6.072-0.416-8.299-0.041l3.955,0.572c-10.427,0.113-16.087-1.397-22.901,0.169l3.841,0.791
		c-6.233,0.026-11.447,0.084-13.868-1.774l6.407-0.467c-10.337-0.105-16.571-0.078-25.2,0.766l3.074,0.095
		c-11.001,1.659-68.436,2.317-78.583,4.449l4.637,1.484l-8.714,1.064c1.028,0.032,4.265-4.536,5.12-4.061
		C266.426,4.989,169.48,4.654,152.284,3.446c-6.933-0.888-1.216-2.267-1.133-2.49c-8.459,0.406-3.668,1.447-10.851,1.22
		c-1.958-0.284,0.423-1.104,1.528-1.29c-3.151,0.123-6.063-0.412-6.313,0.245c3.93,0.572,2.236,2.304,3.887,3.469l-9.24-0.289
		l0.426-1.103c-2.06-0.064-5.271,2.955-14.34,2.225C100.938,4.728,84.297,4.87,68.9,4.387c0.25-0.663,3.489-1.008,6.737-1.35
		c-2.066-0.065-5.214,0.059-7.109-0.448c3.702,1.231-6.476,0.687-3.575,1.226C53.633,6.359,39.074,3.668,29.09,5.359
		C28.184,7.785,7.149,46.917,7.106,49.814C4.015,49.717,0.94,49.619,0,49.367c0.787,0.695,6.859,1.108,10.095,0.766l0.58-1.545
		c7.439-0.436,1.728,0.949,8.981,0.951c0.369,1.277-6.312,1.45-12.192,1.485c5.292,0.227,10.549,1.229,12.726-0.13
		c4.967,0.603-0.577,1.544,5.407,2.178c4.273-0.312,9.896-1.473,14.789-0.648l-0.091,0.223c11.899,1.488,18.264-1.658,29.135-0.199
		l-1.179,0.407c3.838,0.792,11.431-0.083,18.363,0.803c-1.978-0.285-3.685-1.229,0.492-1.318c7.973,0.917,13.431,0.198,19.253,1.272
		l5.62-1.161c27.793,0.656,137.619,0.509,165.546,0.723l-1.097,0.183c42.555,0.005,129.891,1.392,173.889,0.329
		c6.782,1.322,16.167,1.173,23.256,1.622c-3.938-0.569-2.574-1.419,0.506-1.323c21.617,0.461,1.471-0.825,23.343-1.025
		c25.191-0.766,121.518,1.953,143.85,3.328c12.03-1.629,26.996-0.042,38.773-1.01l-1.19,0.407
		c12.641-0.491,84.114,2.237,98.805,1.81l-1.97-0.288c12.817-0.933,11.045,1.018,21.123,1.782c-1.296-2.046,9.69-3.033,13.875-3.124
		l-0.164,0.44c6.313-0.248,20.629-1.797,31.052-1.914l-0.424,1.102c8.706-1.062,25.035-0.327,31.28-0.351
		c14.274,0.67,36.27,2.926,55.386,1.743l12.29,3.342l1.812-0.288c0,0,20.43-37.86-4.67-46.359l0.418-1.1l-4.987,0.069
		c-5.976-0.633-8.762,0.609-8.339-0.489l8.194,0.258c-6.007-0.41-1.801-0.936,0.504-1.528c-2.509-0.145-4.943-0.312-6.936-0.683
		c-1.191,0.409,0.863,0.473,1.795,0.726c-3.239,0.343-7.757,1.316-11.687,0.748c-6.154-0.196-0.366-1.798-7.546-2.022
		c-37.866-1.417-74.551-3.242-112.841-3.559c-0.863-0.472,0.174-0.439,1.282-0.629c-11.542,0.307-21.791-0.018-32.301,0.323
		c-2.909-0.539-3.696-1.23-4.552-1.704C761.975,4.931,702.238,4.132,701.295,3.878z"/>
</g>
</svg>
