<?xml version="1.0" encoding="utf-8"?>
<!-- Generator: Adobe Illustrator 15.0.2, SVG Export Plug-In . SVG Version: 6.00 Build 0)  -->
<!DOCTYPE svg PUBLIC "-//W3C//DTD SVG 1.1//EN" "http://www.w3.org/Graphics/SVG/1.1/DTD/svg11.dtd">
<svg version="1.1" id="Layer_1" xmlns="http://www.w3.org/2000/svg" xmlns:xlink="http://www.w3.org/1999/xlink" x="0px" y="0px"
	 width="62.56px" height="63.728px" viewBox="0 0 62.56 63.728" enable-background="new 0 0 62.56 63.728" xml:space="preserve">
<g>
	<path fill-rule="evenodd" clip-rule="evenodd" fill="#F5F5F5" d="M44.452,4.788c-0.624,1.477-2.15,2.052-3.564,2.741
		c-2.328,2.053-3.835,4.935-4.659,8.496c-1.626-0.051-3.235,0.673-4.657,0c-1.618-6.663,3.376-14.129,7.674-15.896
		C41.249-0.695,43.712,2.624,44.452,4.788z"/>
	<path fill-rule="evenodd" clip-rule="evenodd" fill="#F5F5F5" d="M19.787,0.677c1.042-0.221,0.347,1.295,0.548,1.918
		c0.437,3.03,1.061,6.653,2.467,9.044c0.227,0.385,0.817,0.713,1.096,1.096c0.185,0.254,0.095,0.588,0.272,0.822
		c0.576,0.749,2.057,1.706,2.468,3.014c-1.096,0.732-2.652,1.004-4.112,1.371c-2.835-2.004-5.333-4.348-7.397-7.125
		c-0.353-2.441-2.164-3.835-1.645-6.029c0.18-0.764,0.801-1.074,1.919-1.918c1.256-0.949,2.294-1.725,4.112-2.192
		C19.602,0.677,19.694,0.677,19.787,0.677z"/>
	<path fill-rule="evenodd" clip-rule="evenodd" fill="#F5F5F5" d="M55.688,12.462c1.907,2.112,3.518,4.521,3.837,8.221
		c-0.652-0.442-1.755-0.436-2.467-0.821c-1.502,0.106-2.913-0.144-4.11,0c-3.317,0.399-5.38,2.224-7.948,3.289
		c-0.81,0.671-1.108-0.92-1.918-1.096c-0.26-0.837-1.335-0.858-1.371-1.918c1.111-0.511,1.669-1.921,2.741-2.74
		c0.217-0.166,0.576-0.096,0.822-0.274c0.396-0.29,0.706-0.838,1.096-1.096c0.271-0.179,0.57-0.119,0.823-0.275
		c0.45-0.28,1.244-1.004,1.918-1.37c0.486-0.265,1.117-0.267,1.644-0.547C51.786,13.284,53.505,12.204,55.688,12.462z"/>
	<path fill-rule="evenodd" clip-rule="evenodd" fill="#F5F5F5" d="M19.238,21.506c0.265,2.274-1.146,2.875-1.918,4.112
		c-6.76,1.026-12.737-0.917-15.896-4.387c0.231-3.055,1.443-5.133,3.015-6.852c1.092,0.077,1.395,1.298,2.192,1.919
		c0.91,0.709,2.462,1.537,3.287,2.74c0.772-0.079,1.297,0.531,1.92,0.822c0.293,0.137,0.692,0.098,1.097,0.274
		c0.137,0.061,0.444,0.516,0.548,0.547c0.874,0.276,1.913-0.055,2.74,0.548C17.521,21.03,18.107,21.539,19.238,21.506z"/>
	<path fill-rule="evenodd" clip-rule="evenodd" fill="#F5F5F5" d="M38.148,21.231c2.61,2.289,4.865,6.283,4.386,10.963
		c-0.329,3.209-2.169,5.378-3.563,7.399c-2.965,2.257-7.566,4.425-12.059,2.739c-0.258-0.096-0.501-0.42-0.822-0.547
		c-1.63-0.641-3.345-1.98-4.659-3.289c-0.096-0.76-0.526-1.262-0.821-1.918c-0.13-0.287-0.1-0.7-0.274-1.096
		c-0.213-0.489-0.706-1.191-0.82-2.467c-0.245-2.641,0.312-4.68,1.095-6.579c0.092-0.22,0.104-0.792,0.273-1.096
		c0.353-0.631,1.092-0.975,1.643-1.644c0.245-0.294,0.288-0.799,0.55-1.096c0.721-0.821,2.238-1.63,3.562-2.193
		c1.685-0.716,3.069-1.268,5.756-1.096C34.824,19.469,35.935,20.427,38.148,21.231z"/>
	<path fill-rule="evenodd" clip-rule="evenodd" fill="#F5F5F5" d="M60.895,40.416c-1.266,0.077-1.479-0.897-1.918-1.645
		c-2.147-2.136-5.859-3.548-10.141-3.288c-1.141,0.068-2.364,0.533-3.562,0.547c0.066-1.802-0.482-2.988-0.274-4.933
		c2.793-1.357,6.563-2.457,10.688-1.37c1.746,0.46,3.818,0.786,4.659,1.37c1.164,0.809,1.526,2.201,2.192,3.289
		C62.601,37.005,62.641,39.603,60.895,40.416z"/>
	<path fill-rule="evenodd" clip-rule="evenodd" fill="#F5F5F5" d="M1.697,39.319c0.047-0.594-0.97-0.125-1.369-0.273
		c-0.486-2.246-0.528-6.111,0.549-7.675c0.635-0.555,1.165,0.656,2.19,0.549c1.856,1.147,5.079,1.741,7.949,1.37
		c1.899-0.245,3.249-1.227,4.659-1.37c0.94,0.888,1.333,2.319,1.645,3.837c-0.527,1.268-2.226,1.774-3.289,2.192
		c-3.09,1.214-7.652,1.42-11.786,1.37C2.064,39.319,1.88,39.319,1.697,39.319z"/>
	<path fill-rule="evenodd" clip-rule="evenodd" fill="#F5F5F5" d="M22.801,43.156c-0.227,3.337-1.678,5.448-2.467,8.222
		c-0.869,0.912-1.552,2.077-2.469,3.289c-0.771,1.024-1.428,2.523-2.738,2.74c-2.155,0.358-4.827-2.103-5.756-3.562
		C9.025,53.3,8.512,52.803,8.55,52.2c0.325-1.428,1.951-1.543,3.014-2.191c0.447-0.273,0.91-0.808,1.371-1.096
		c0.52-0.328,1.025-0.686,1.644-0.824c0.524-0.754,1.163-1.395,1.919-1.918c0.737-1.729,1.638-3.295,2.74-4.658
		c0.052-0.223,0.276-0.274,0.276-0.549C20.862,41.44,21.786,42.345,22.801,43.156z"/>
	<path fill-rule="evenodd" clip-rule="evenodd" fill="#F5F5F5" d="M55.14,52.2c-0.974,2.772-3.081,4.41-5.755,5.481
		c-1.414-4.25-3.629-7.7-6.578-10.415c-1.356-0.652-2.599-1.42-3.562-2.466c0.092-1.826,2.084-1.752,3.015-2.741
		C48.218,43.772,52.772,46.896,55.14,52.2z"/>
	<path fill-rule="evenodd" clip-rule="evenodd" fill="#F5F5F5" d="M32.667,45.349c2.851,3.853,3.363,12.228,2.192,18.362
		c-3.688,0.125-6.655-0.472-8.771-1.919c0.211-1.115,1.035-2.182,1.645-3.288c0.308-0.559,0.539-1.052,0.822-1.645
		c0.466-0.978,1.382-2.825,1.372-4.659c-0.009-1.265-0.645-2.373-0.824-3.838c-0.27-0.216-1.044-1.287-0.548-1.369
		C28.92,45.438,30.893,45.495,32.667,45.349z"/>
</g>
</svg>
