<?xml version="1.0" encoding="utf-8"?>
<!-- Generator: Adobe Illustrator 15.0.2, SVG Export Plug-In . SVG Version: 6.00 Build 0)  -->
<!DOCTYPE svg PUBLIC "-//W3C//DTD SVG 1.1//EN" "http://www.w3.org/Graphics/SVG/1.1/DTD/svg11.dtd">
<svg version="1.1" id="Layer_1" xmlns="http://www.w3.org/2000/svg" xmlns:xlink="http://www.w3.org/1999/xlink" x="0px" y="0px"
	 width="87.187px" height="330.558px" viewBox="0 0 87.187 330.558" enable-background="new 0 0 87.187 330.558"
	 xml:space="preserve">
<path d="M28.385,31.29c0,0-2.906-1.117-3.354-7.822c-0.446-6.705,1.677-3.8,1.677-3.8S25.479,6.929,29.949,3.576
	C34.419,0.224,37.548,0,40.677,0s13.186,2.235,13.856,12.292s-1.341,19.892-1.341,19.892s-0.224,5.14-2.905,7.822
	c0,0-3.353,2.011-1.564,4.023c0,0,3.13,4.47,6.929,5.141s8.046,1.117,11.175,5.364s6.706,8.27,13.634,24.138
	s7.376,28.161,6.258,31.513s-2.459,3.799-5.812,3.799s-11.398,0.894-11.398,0.894s0.224,11.846,3.353,20.786
	s6.034,22.35,6.034,22.35h-3.353c0,0,0.795,7.471,3.576,19.667c2.905,12.739,4.022,39.783,4.022,39.783s-1.118,16.09-2.905,26.371
	s-2.682,57.887-2.682,64.145l-2.905,2.905l-0.224,2.682c0,0-4.246,2.458-2.905,4.693s1.563,1.342,5.811,2.683
	s8.047,4.693,4.694,6.481s-13.41,0.446-13.41,0.446s-12.292-5.363-15.868-5.587s-6.705-1.787-6.929-4.693s0.67-7.599,0.894-11.398
	s-1.341-12.07,0-15.869s4.47-9.834,4.47-16.092s-0.223-24.138-0.223-25.255s2.234-1.117,0.67-5.588
	c-1.564-4.47-3.799-15.645-4.022-22.35s-0.447-12.963-0.447-12.963s-5.363,16.092-7.375,25.256
	c-2.012,9.163-4.694,17.656-5.141,20.785c-0.447,3.129-3.354,29.277-3.354,34.865s0.001,15.422,0.672,18.104
	c0.67,2.682,0.894,5.14-1.118,7.599s-3.353,5.364-3.353,6.705s1.117,9.388-2.905,9.164s-12.963,0.224-13.856-3.129
	c-0.895-3.353-0.447-8.94,0-10.505c0.446-1.564,0.893-2.683,0.223-5.364s-0.67-8.27-0.67-8.27s-2.235-1.563-1.564-6.928
	c0.67-5.364,3.129-16.539,3.129-19.892s-0.447-24.809,0.223-29.055c0.671-4.246,2.012-11.398,0.447-18.998
	c-1.564-7.599-1.117-22.125-1.117-25.701s-2.012-18.773-3.8-26.82c-1.788-8.045-1.413-19.072,1.341-33.3
	c2.683-13.856,2.683-24.361,0.225-31.29c0,0-9.164-25.926-9.164-32.184s2.014-23.019,14.082-29.5c0,0,3.799-0.67,5.141-2.905
	c1.341-2.235,1.341-4.247,3.576-4.247c2.234,0,4.693,0,5.141-3.129C28.386,36.208,28.385,31.29,28.385,31.29z"/>
</svg>
